<svg width="96" height="88" viewBox="0 0 96 88" fill="none" xmlns="http://www.w3.org/2000/svg">
<path d="M12.2048 58.8714C13.176 59.0257 14.1988 59.1499 15.2688 59.2528C14.1988 59.1542 13.176 59.0257 12.2048 58.8714Z" fill="white"/>
<path d="M21.0014 21.4288C21.7191 23.293 23.0856 24.583 24.7616 25.2944C25.939 25.7915 27.2712 25.7701 28.4615 25.3029C33.0124 23.5245 37.8597 21.9217 42.8962 20.5546C48.8694 18.9304 54.7868 17.7176 60.4335 16.9376L23.0383 0.331256C20.4127 -0.804405 17.4819 1.11979 17.4905 3.97394L17.5593 30.1113C20.4213 28.2771 21.9167 24.8144 21.0057 21.4288H21.0014Z" fill="white"/>
<path d="M95.8176 26.1943C94.7561 22.3074 88.77 19.7018 79.3932 19.0375C75.2506 18.7461 70.6482 18.8447 65.7622 19.3032C58.822 19.9589 51.3103 21.3431 43.6783 23.4173C39.1446 24.6515 34.7743 26.0743 30.6446 27.6428C30.0343 27.8743 29.4327 28.1057 28.8354 28.3457C27.8556 28.7314 27.0133 29.417 26.4762 30.317C25.4835 31.9883 25.1569 33.9982 25.7714 36.0596C25.4491 35.1553 25.0065 34.4268 24.4693 33.8568C22.9868 32.2798 20.5803 31.9755 18.6594 32.9783C15.7501 34.4954 13.0686 36.081 10.6836 37.7224C7.06953 40.2037 3.22774 43.195 1.09627 47.1205C0.417298 48.3761 -0.0897845 49.7989 0.0133509 51.2432C0.155162 53.2188 1.43146 54.5773 2.98709 55.6787C3.82077 56.2701 4.7232 56.7672 5.66861 57.1572C8.65094 58.3914 12.0501 58.9571 15.2731 59.2528V50.9989C15.2731 50.1932 15.879 49.4732 16.6826 49.4347C17.5421 49.3918 18.2511 50.0689 18.2511 50.9175C18.2511 50.9175 18.2511 60.607 18.2511 60.6027V71.2651C18.2511 73.1078 19.2438 74.8306 20.8424 75.7563L40.7475 87.2972C41.5468 87.76 42.4579 88 43.3732 88C44.0436 88 44.714 87.8714 45.3457 87.6143L74.5072 75.6963C76.4711 74.8949 77.7431 73.005 77.7431 70.888V45.192L78.0697 45.0377C90.4115 38.468 97.2099 31.2641 95.8218 26.1943H95.8176ZM56.9097 55.7601C56.9097 58.7899 55.9428 60.5513 54.2282 60.5513C52.5136 60.5513 51.3791 58.9228 51.3791 55.2115V49.3104C51.3791 46.2805 52.346 44.5192 54.0606 44.5192C55.7752 44.5192 56.9097 46.1477 56.9097 49.8589V55.7601ZM68.8562 52.7945C68.8562 55.8244 67.8893 57.5857 66.1747 57.5857C64.4601 57.5857 63.3256 55.9572 63.3256 52.246V46.3448C63.3256 43.315 64.2925 41.5536 66.0071 41.5536C67.7217 41.5536 68.8562 43.1821 68.8562 46.8934V52.7945Z" fill="white"/>
</svg>
